<svg width="96" height="96" xmlns="http://www.w3.org/2000/svg" xmlns:xlink="http://www.w3.org/1999/xlink" xml:space="preserve" overflow="hidden"><g transform="translate(-771 -106)"><path d="M820.44 194 820.44 185.33C820.475 183.956 819.823 182.654 818.7 181.86 816.201 179.92 813.306 178.555 810.22 177.86 807.904 177.165 805.507 176.778 803.09 176.71 800.684 176.704 798.292 177.076 796 177.81 792.958 178.628 790.086 179.983 787.52 181.81 786.436 182.635 785.797 183.918 785.79 185.28L785.79 194Z" fill="#FFFFFF"/><path d="M811.76 165.67C811.76 170.458 807.878 174.34 803.09 174.34 798.302 174.34 794.42 170.458 794.42 165.67 794.42 160.882 798.302 157 803.09 157 807.878 157 811.76 160.882 811.76 165.67Z" fill="#FFFFFF"/><path d="M850.27 115 809.17 115C807.832 115.011 806.754 116.102 806.76 117.44L806.76 149.56C806.743 150.891 807.809 151.983 809.14 152 809.143 152 809.147 152 809.15 152L816.75 152 816.75 162.09 825.92 152 850.22 152C851.557 151.995 852.635 150.907 852.63 149.57 852.63 149.567 852.63 149.563 852.63 149.56L852.68 117.47C852.708 116.134 851.647 115.028 850.31 115.001 850.297 115 850.284 115 850.27 115ZM836.27 124.39 837.82 122.84C838.091 122.622 838.488 122.666 838.706 122.938 838.888 123.166 838.89 123.49 838.71 123.72L837.16 125.27C837.043 125.386 836.885 125.451 836.72 125.45 836.553 125.449 836.392 125.385 836.27 125.27 836.065 125.023 836.077 124.661 836.3 124.43ZM829.1 119.59C829.056 119.245 829.301 118.929 829.646 118.886 829.991 118.842 830.306 119.086 830.35 119.432 830.357 119.484 830.357 119.537 830.35 119.59L830.35 121.77C830.394 122.115 830.149 122.43 829.804 122.474 829.459 122.518 829.144 122.274 829.1 121.928 829.093 121.876 829.093 121.823 829.1 121.77ZM820.76 122.72C820.993 122.477 821.38 122.469 821.622 122.702 821.628 122.708 821.634 122.714 821.64 122.72L823.19 124.27C823.429 124.515 823.429 124.905 823.19 125.15 823.073 125.266 822.915 125.331 822.75 125.33 822.583 125.329 822.422 125.265 822.3 125.15L820.76 123.6C820.545 123.357 820.558 122.987 820.79 122.76ZM820 132 817.85 132C817.505 131.956 817.26 131.641 817.304 131.296 817.34 131.011 817.565 130.786 817.85 130.75L820 130.75C820.345 130.706 820.661 130.951 820.704 131.296 820.748 131.641 820.504 131.956 820.158 132 820.106 132.007 820.053 132.007 820 132ZM823.18 138.4 821.63 139.95C821.356 140.165 820.96 140.116 820.746 139.842 820.565 139.612 820.567 139.288 820.75 139.06L822.29 137.52C822.562 137.302 822.958 137.346 823.176 137.618 823.358 137.846 823.36 138.17 823.18 138.4ZM829.7 145.5C828.666 145.505 827.798 144.72 827.7 143.69L831.61 143.69C831.516 144.686 830.7 145.459 829.7 145.5ZM832.14 142.44 827.25 142.44C826.753 142.44 826.35 142.037 826.35 141.54 826.35 141.043 826.753 140.64 827.25 140.64L832.14 140.64C832.637 140.64 833.04 141.043 833.04 141.54 833.04 142.037 832.637 142.44 832.14 142.44ZM833.33 139.33C833.314 139.366 833.279 139.389 833.24 139.39L826.15 139.39C826.121 139.402 826.089 139.402 826.06 139.39 825.555 138.286 824.917 137.249 824.16 136.3 823.619 135.691 823.192 134.99 822.9 134.23 822.584 133.426 822.408 132.574 822.38 131.71L822.38 131.4C822.529 127.36 825.925 124.206 829.966 124.355 833.796 124.497 836.868 127.57 837.01 131.4L837.01 131.66C836.982 132.526 836.809 133.381 836.5 134.19 836.203 134.948 835.777 135.648 835.24 136.26 834.483 137.204 833.842 138.234 833.33 139.33ZM838.74 139.81C838.623 139.926 838.465 139.991 838.3 139.99 838.133 139.989 837.972 139.925 837.85 139.81L836.3 138.26C836.086 137.986 836.134 137.59 836.408 137.376 836.638 137.195 836.962 137.197 837.19 137.38L838.74 138.92C838.98 139.168 838.98 139.562 838.74 139.81ZM841.54 132 839.36 132C839.015 132.044 838.7 131.799 838.656 131.454 838.612 131.109 838.856 130.794 839.202 130.75 839.254 130.743 839.307 130.743 839.36 130.75L841.54 130.75C841.885 130.706 842.201 130.951 842.244 131.296 842.288 131.641 842.044 131.956 841.698 132 841.646 132.007 841.593 132.007 841.54 132Z" fill="#FFFFFF"/></g></svg>